# xmcd
#
# Track frame offsets:
#	150
#	28383
#	71400
#	91270
#	120176
#	140667
#
# Disc length: 2431 seconds
#
# Revision: 1
# Processed by: cddbd v1.5.2PL0 Copyright (c) Steve Scherf et al.
# Submitted via: audiograbber 1.83.01
#
DISCID=4c097d06
DTITLE=Golden Earring - Complete Studio Recordings [CD 09) - Moontan [remastere
DTITLE=d 2017]
DYEAR=1973
DGENRE=Rock
TTITLE0=Candy's Going Bad
TTITLE1=Are You Receiving Me
TTITLE2=Suzy Lunacy (Mental Rock)
TTITLE3=Radar Love
TTITLE4=Just Like Vince Taylor
TTITLE5=The Vanilla Queen
EXTD=
EXTT0=
EXTT1=
EXTT2=
EXTT3=
EXTT4=
EXTT5=
PLAYORDER=
